<svg xmlns="http://www.w3.org/2000/svg" xmlns:xlink="http://www.w3.org/1999/xlink" width="1920" height="618.352" viewBox="0 0 1920 618.352">
  <defs>
    <linearGradient id="linear-gradient" x1="0.227" y1="0.102" x2="0.913" y2="0.951" gradientUnits="objectBoundingBox">
      <stop offset="0" stop-color="#a2eaff"/>
      <stop offset="0.438" stop-color="#aed0ff"/>
      <stop offset="1" stop-color="#bbaeff"/>
    </linearGradient>
  </defs>
  <path id="Subtraction_1" data-name="Subtraction 1" d="M2164.2,445.352h0a35.069,35.069,0,0,1-15.1-3.584,58.727,58.727,0,0,1-14.487-10.182,115.831,115.831,0,0,1-13.947-15.934,220.765,220.765,0,0,1-13.477-20.835c-18.083-31.362-34.992-74-50.571-115.4V-173h1920V350.425a117.589,117.589,0,0,1-19.285-2.505,119.278,119.278,0,0,1-17.813-5.355,145.88,145.88,0,0,1-31.973-17.551c-19.948-14.172-37.617-32.65-54.7-50.519l-.005-.005c-11.071-11.578-21.529-22.514-32.6-32.416-10.468-9.366-20.1-16.535-29.44-21.916a109.916,109.916,0,0,0-15.852-7.571,91.959,91.959,0,0,0-16.938-4.646,55.643,55.643,0,0,0-25.115,1.409,70.371,70.371,0,0,0-14.88,6.3c-9.143,5.114-18.311,12.47-28.028,22.49a315.376,315.376,0,0,0-26.4,31.795c-8.618,11.633-17.241,24.247-25.581,36.446l-.009.013c-7.945,11.622-16.161,23.64-24.358,34.788a338.819,338.819,0,0,1-25.07,30.768c-9.208,9.836-17.869,17.264-26.478,22.705a77.749,77.749,0,0,1-13.987,7.07,59.512,59.512,0,0,1-14.6,3.544,44.005,44.005,0,0,1-4.691.252,47.436,47.436,0,0,1-14.758-2.438,66.838,66.838,0,0,1-14.463-6.911c-9.011-5.623-18.26-13.732-28.276-24.791a388.729,388.729,0,0,1-27.806-35.325c-9.25-13-18.685-27.207-27.809-40.951-19.855-29.907-40.386-60.832-61.91-83.989a198.323,198.323,0,0,0-16.37-15.829,124,124,0,0,0-16.873-12.245,81.206,81.206,0,0,0-17.45-7.9,61.413,61.413,0,0,0-18.1-2.8,79.494,79.494,0,0,0-17.716,2,85.163,85.163,0,0,0-16.453,5.64,105.855,105.855,0,0,0-15.368,8.759A145.344,145.344,0,0,0,3221,200.086a260.935,260.935,0,0,0-26.913,28.406c-8.645,10.387-17.175,21.633-25.423,32.509-8.009,10.561-16.291,21.481-24.654,31.576a265.448,265.448,0,0,1-25.9,27.64c-9.675,8.75-18.987,15.243-28.467,19.85a84.092,84.092,0,0,1-15.6,5.8,76.478,76.478,0,0,1-16.736,2.406c-.668.021-1.348.031-2.021.032h-.017a64.825,64.825,0,0,1-17.941-2.565,78.611,78.611,0,0,1-16.941-7.24,111.856,111.856,0,0,1-16.048-11.215,170.87,170.87,0,0,1-15.28-14.49c-19.917-21.192-38.223-49.416-55.927-76.712-7.631-11.765-15.522-23.932-23.285-35.1a346.788,346.788,0,0,0-23.51-30.655c-8.539-9.733-16.521-17.076-24.4-22.45a70,70,0,0,0-12.746-6.972,50.977,50.977,0,0,0-13.22-3.511,37.157,37.157,0,0,0-4.425-.266,39.945,39.945,0,0,0-12.842,2.2,56.883,56.883,0,0,0-12.575,6.248c-7.847,5.1-15.908,12.471-24.642,22.545-16.3,18.8-32.322,43.969-49.284,70.615-19.874,31.221-40.424,63.5-63.231,88.278a201.516,201.516,0,0,1-17.529,17,131.611,131.611,0,0,1-18.454,13.269,91.407,91.407,0,0,1-19.5,8.688,73.894,73.894,0,0,1-20.656,3.255c-.361,0-.7.006-1.012.006h-.016a82.181,82.181,0,0,1-22.756-3.209A92.11,92.11,0,0,1,2548.227,357a124.121,124.121,0,0,1-19.085-13.892,183.359,183.359,0,0,1-17.576-17.84c-10.084-11.64-20.394-25.968-31.519-43.8-9.842-15.778-19.147-32.367-28.147-48.41l-.015-.027c-12.257-21.851-23.834-42.491-35.764-59.44a165.923,165.923,0,0,0-18.176-22.14,86.556,86.556,0,0,0-9.4-8.182,57.181,57.181,0,0,0-9.7-5.878,22.066,22.066,0,0,0-9.4-2.21,22.586,22.586,0,0,0-10.438,2.72,41.988,41.988,0,0,0-10.137,7.745c-6.309,6.333-12.752,15.52-19.7,28.085-12.986,23.494-25.812,55.391-39.391,89.161-7.666,19.063-15.591,38.771-23.894,57.826-9.385,21.537-17.97,39.235-26.247,54.107-4.787,8.6-9.6,16.477-14.3,23.408a190.619,190.619,0,0,1-15.249,19.778,113.79,113.79,0,0,1-16.313,15.248,70.791,70.791,0,0,1-17.5,9.817A34.367,34.367,0,0,1,2164.2,445.352Z" transform="translate(-2056.617 173)" opacity="0.199" fill="url(#linear-gradient)"/>
</svg>
